HIERARCHY
ROOT Hips
{
	OFFSET 0.000000 0.000000 0.000000
	CHANNELS 6 Xposition Yposition Zposition Xrotation Yrotation Zrotation
	JOINT LeftUpLeg_virtual
	{
		OFFSET 0.000000 0.000000 0.000000
		CHANNELS 3 Xrotation Yrotation Zrotation
		JOINT LeftUpLeg
		{
			OFFSET 15.427100 -6.655098 0.678600
			CHANNELS 3 Xrotation Yrotation Zrotation
			JOINT LeftLeg
			{
				OFFSET 4.081073 -39.591068 13.024000
				CHANNELS 3 Xrotation Yrotation Zrotation
				JOINT LeftFoot
				{
					OFFSET -4.081074 -37.707932 -15.979700
					CHANNELS 3 Xrotation Yrotation Zrotation
					JOINT LeftToeBase
					{
						OFFSET 5.346399 -15.068900 20.645000
						CHANNELS 3 Xrotation Yrotation Zrotation
						JOINT LeftToe_End
						{
							OFFSET 2.754700 0.931300 11.300900
							CHANNELS 3 Xrotation Yrotation Zrotation
							End Site
							{
								OFFSET 0 0 0
							}
						}
					}
				}
			}
		}
	}
	JOINT RightUpLeg_virtual
	{
		OFFSET 0.000000 0.000000 0.000000
		CHANNELS 3 Xrotation Yrotation Zrotation
		JOINT RightUpLeg
		{
			OFFSET -15.569500 -6.655098 0.678600
			CHANNELS 3 Xrotation Yrotation Zrotation
			JOINT RightLeg
			{
				OFFSET -4.081825 -39.591045 13.023800
				CHANNELS 3 Xrotation Yrotation Zrotation
				JOINT RightFoot
				{
					OFFSET 4.081824 -37.707954 -15.979600
					CHANNELS 3 Xrotation Yrotation Zrotation
					JOINT RightToeBase
					{
						OFFSET -5.346400 -15.068900 20.645000
						CHANNELS 3 Xrotation Yrotation Zrotation
						JOINT RightToe_End
						{
							OFFSET -2.754700 0.931300 11.300900
							CHANNELS 3 Xrotation Yrotation Zrotation
							End Site
							{
								OFFSET 0 0 0
							}
						}
					}
				}
			}
		}
	}
	JOINT Spine_virtual
	{
		OFFSET 0.000000 0.000000 0.000000
		CHANNELS 3 Xrotation Yrotation Zrotation
		JOINT Spine
		{
			OFFSET -0.279200 12.230698 -2.892100
			CHANNELS 3 Xrotation Yrotation Zrotation
			JOINT Spine1
			{
				OFFSET -0.232667 10.192268 -1.242267
				CHANNELS 3 Xrotation Yrotation Zrotation
				JOINT Spine1_split
				{
					OFFSET -0.232667 10.192268 -1.242267
					CHANNELS 3 Xrotation Yrotation Zrotation
					JOINT Spine2
					{
						OFFSET -0.232667 10.192268 -1.242267
						CHANNELS 3 Xrotation Yrotation Zrotation
						JOINT Neck_virtual
						{
							OFFSET 0.000000 0.000000 0.000000
							CHANNELS 3 Xrotation Yrotation Zrotation
							JOINT Neck
							{
								OFFSET -0.418800 17.814194 8.416900
								CHANNELS 3 Xrotation Yrotation Zrotation
								JOINT Head
								{
									OFFSET 0.000000 7.031097 3.806800
									CHANNELS 3 Xrotation Yrotation Zrotation
									JOINT HeadTop_End
									{
										OFFSET 0.000000 24.646606 12.978600
										CHANNELS 3 Xrotation Yrotation Zrotation
										End Site
										{
											OFFSET 0 0 0
										}
									}
								}
							}
						}
						JOINT LeftShoulder_virtual
						{
							OFFSET 0.000000 0.000000 0.000000
							CHANNELS 3 Xrotation Yrotation Zrotation
							JOINT LeftShoulder
							{
								OFFSET 8.476499 7.247704 -3.868750
								CHANNELS 3 Xrotation Yrotation Zrotation
								JOINT LeftShoulder_split
								{
									OFFSET 8.476499 7.247704 -3.868750
									CHANNELS 3 Xrotation Yrotation Zrotation
									JOINT LeftArm
									{
										OFFSET 9.308998 -2.777710 0.208600
										CHANNELS 3 Xrotation Yrotation Zrotation
										JOINT LeftForeArm
										{
											OFFSET 29.972298 0.000000 0.000000
											CHANNELS 3 Xrotation Yrotation Zrotation
											JOINT LeftHand
											{
												OFFSET 26.026505 0.000000 0.000000
												CHANNELS 3 Xrotation Yrotation Zrotation
												End Site
												{
													OFFSET 0 0 0
												}
											}
										}
									}
								}
							}
						}
						JOINT RightShoulder_virtual
						{
							OFFSET 0.000000 0.000000 0.000000
							CHANNELS 3 Xrotation Yrotation Zrotation
							JOINT RightShoulder
							{
								OFFSET -7.570500 7.247704 -3.868750
								CHANNELS 3 Xrotation Yrotation Zrotation
								JOINT RightShoulder_split
								{
									OFFSET -7.570500 7.247704 -3.868750
									CHANNELS 3 Xrotation Yrotation Zrotation
									JOINT RightArm
									{
										OFFSET -9.308998 -2.777710 0.208500
										CHANNELS 3 Xrotation Yrotation Zrotation
										JOINT RightForeArm
										{
											OFFSET -29.972300 0.000000 0.000000
											CHANNELS 3 Xrotation Yrotation Zrotation
											JOINT RightHand
											{
												OFFSET -26.026505 0.000000 0.000000
												CHANNELS 3 Xrotation Yrotation Zrotation
												End Site
												{
													OFFSET 0 0 0
												}
											}
										}
									}
								}
							}
						}
					}
				}
			}
		}
	}
}
MOTION
Frames: 7
Frame Time: 0.03333333
13.598799 80.668304 -19.910692 0.000000 0.000000 0.000000 12.251438 8.806470 1.318658 -7.980703 18.443567 19.097658 37.583901 -6.753618 -1.795834 -10.100650 -5.048217 -13.204309 1.328890 -4.960886 4.038406 0.000000 0.000000 0.000000 10.060819 5.475574 1.972100 -49.433528 6.036861 -7.283859 52.728104 1.476847 0.387583 -6.575741 -3.830844 27.642766 8.777045 2.294339 -10.252181 0.000000 0.000000 0.000000 14.440377 9.913365 1.170007 -13.125126 -7.403053 -3.150952 5.174679 -5.325956 3.465444 0.029553 -0.374977 -0.010130 0.000000 0.000000 0.000000 3.623125 -3.622923 3.985607 10.144260 11.604829 5.524407 -6.596448 32.724140 1.920524 0.000000 0.000000 0.000000 7.599866 -4.583509 4.181191 7.444912 -9.177279 0.798600 4.422950 -6.172035 3.498819 -40.269573 1.465123 -21.215186 179.361287 -63.237429 178.632314 0.000000 0.000000 0.000000 7.134120 -4.619230 3.932457 -3.417963 -7.358861 21.237701 -1.478745 4.674916 -6.186397 -42.388233 -1.688845 31.283749 -156.571186 50.260155 172.707467 0.000000 0.000000 0.000000 
13.941872 82.470741 -21.650034 0.000000 0.000000 0.000000 13.547057 9.907314 -0.539891 -21.043225 12.336737 24.337900 52.050461 -5.602610 -2.394852 2.276881 -4.804380 -9.678380 6.570839 -4.316230 -1.774266 0.000000 0.000000 0.000000 11.383334 6.776080 0.640319 -43.723039 3.661692 -5.750738 48.206478 2.178321 -1.090913 -10.173487 -3.133708 25.041142 3.273986 3.728952 -9.745601 0.000000 0.000000 0.000000 14.933978 9.206133 0.525561 -9.141985 -6.957819 -2.002658 4.618483 -5.458172 1.812860 -0.003954 -0.154170 -0.069772 0.000000 0.000000 0.000000 3.053966 -3.763501 2.498696 11.272733 11.303250 6.569500 -9.511518 30.918320 5.778162 0.000000 0.000000 0.000000 6.962531 -4.843764 3.092944 8.761785 -10.029531 9.747315 2.874914 -5.472247 1.368856 -51.191933 -1.632200 -11.895654 -170.819001 -66.940690 -174.586807 0.000000 0.000000 0.000000 6.110516 -4.720552 2.745182 -4.777086 -5.643679 13.049547 -1.292950 2.433066 -4.604552 -55.805193 1.224078 26.531668 -148.844903 55.025179 164.117834 0.000000 0.000000 0.000000 
14.017372 83.817383 -22.935831 0.000000 0.000000 0.000000 14.589238 9.713730 -1.379134 -32.137703 6.775046 26.193046 64.363174 -2.705428 -2.318962 11.907429 -2.444827 -5.309228 6.390313 -3.707185 -8.220254 0.000000 0.000000 0.000000 12.533871 7.948190 -0.315828 -36.556108 -0.572896 -4.106510 44.561138 1.032304 -1.600423 -16.909462 -4.207310 18.995816 -3.756041 5.236206 -9.473543 0.000000 0.000000 0.000000 15.393161 8.163728 0.392900 -4.989539 -6.339060 -1.214672 4.154268 -5.689195 0.012365 -0.045435 0.095060 -0.056246 0.000000 0.000000 0.000000 2.850104 -3.982243 0.920268 12.242714 11.083251 7.113601 -12.862479 29.571331 8.534504 0.000000 0.000000 0.000000 6.384546 -5.265868 1.599517 9.826095 -9.300570 17.156960 1.849390 -4.636325 1.541990 -58.695490 -5.386506 -1.989717 -157.932046 -73.187868 -164.467404 0.000000 0.000000 0.000000 5.242341 -4.907287 1.391735 -6.053712 -3.407659 3.574246 0.573949 -0.217302 -2.980585 -65.030579 3.029602 21.159701 -134.626170 62.151477 148.166010 0.000000 0.000000 0.000000 
13.975337 84.989929 -23.969255 0.000000 0.000000 0.000000 15.185768 8.735178 -0.806649 -40.018871 4.337982 24.664846 71.441094 0.837067 -1.694523 16.197416 -0.157306 -1.687888 0.106295 -2.457923 -13.165702 0.000000 0.000000 0.000000 13.050475 7.790198 -0.041939 -32.261733 -4.744231 -3.981167 43.544013 -0.114029 -0.947573 -20.930261 -5.094218 13.464926 -6.091993 6.193365 -8.483523 0.000000 0.000000 0.000000 15.762818 6.663284 0.881546 -1.523106 -5.762822 -1.228527 3.825571 -5.901682 -1.449632 -0.065742 0.278870 -0.025743 0.000000 0.000000 0.000000 2.950516 -4.151993 -0.349175 12.906756 10.947175 7.075534 -16.609924 28.829573 9.937710 0.000000 0.000000 0.000000 5.911536 -5.662554 0.100680 10.231688 -7.611197 21.222670 1.050395 -4.661591 2.270488 -61.891985 -7.511921 6.061176 -139.739414 -79.180033 -148.194929 0.000000 0.000000 0.000000 4.682517 -5.057323 0.212659 -6.864131 -1.320460 -5.271739 3.448988 -1.646590 -0.956781 -68.558884 3.043558 17.257305 -112.710791 67.608921 123.885411 0.000000 0.000000 0.000000 
13.585321 86.083305 -24.665628 0.000000 0.000000 0.000000 15.762410 7.554764 0.849940 -45.339089 5.170955 21.185737 73.165745 3.015957 0.290367 16.857216 -0.610119 -1.186236 -7.032973 -0.847355 -15.483277 0.000000 0.000000 0.000000 13.519055 6.672812 1.507324 -30.581144 -6.889113 -4.917314 43.211298 0.415417 0.066500 -22.287052 -5.016210 11.055310 -6.680868 6.922181 -7.505227 0.000000 0.000000 0.000000 16.258324 5.346821 1.740295 0.552861 -5.379631 -2.298762 3.678323 -5.949706 -2.189719 -0.008377 0.293284 -0.033094 0.000000 0.000000 0.000000 3.027543 -4.176304 -1.021304 13.162101 10.950247 6.421404 -20.176691 28.672752 10.009425 0.000000 0.000000 0.000000 5.363168 -5.791590 -1.038045 9.938282 -5.703093 20.292612 1.151465 -5.635452 2.846263 -60.967798 -6.838327 10.357023 -127.434801 -82.605032 -136.789687 0.000000 0.000000 0.000000 4.538059 -5.033207 -0.531726 -7.156715 -0.013560 -11.349378 6.227756 -0.522143 0.719374 -66.864533 1.211836 16.041551 -93.877740 69.563059 102.878345 0.000000 0.000000 0.000000 
12.904749 86.997406 -24.594419 0.000000 0.000000 0.000000 16.564097 5.299449 2.776740 -48.047529 8.680450 17.061457 69.344513 3.406295 3.031473 14.560008 -3.445205 -2.714243 -9.608145 -0.180146 -14.601075 0.000000 0.000000 0.000000 14.707873 5.138195 3.203627 -28.379598 -6.291353 -5.278918 41.346851 2.567400 0.840153 -23.152236 -4.352661 11.088347 -10.392475 7.782364 -7.025991 0.000000 0.000000 0.000000 16.568704 4.079687 2.346052 1.015079 -5.124745 -4.111874 3.658261 -5.714933 -1.997675 0.083161 0.320834 0.066740 0.000000 0.000000 0.000000 2.871427 -3.923786 -0.967542 12.899497 10.995593 5.148555 -22.692842 28.860148 8.906506 0.000000 0.000000 0.000000 4.918794 -5.535540 -1.495167 9.261809 -4.032208 14.434141 1.810770 -7.081539 2.692669 -56.096347 -3.790789 9.961502 -145.325225 -83.587329 -154.683649 0.000000 0.000000 0.000000 4.847098 -4.644929 -0.653819 -7.212459 0.145849 -13.405552 8.938447 2.764220 3.321946 -61.471627 -1.347119 18.231547 -90.403885 71.101702 97.986071 0.000000 0.000000 0.000000 
12.142042 87.202469 -24.030771 0.000000 0.000000 0.000000 17.296465 1.685440 4.092844 -49.403117 13.293573 13.603241 61.794060 2.555982 5.672327 9.418404 -6.979522 -4.976078 -6.595961 -0.476216 -11.440934 0.000000 0.000000 0.000000 16.317385 2.919547 3.916956 -24.246185 -4.021392 -3.951643 37.891058 4.262173 1.058304 -24.143032 -5.111829 11.436504 -14.560638 8.514087 -6.936694 0.000000 0.000000 0.000000 16.472067 2.675256 2.360484 0.120856 -4.709499 -6.024466 3.806520 -5.080230 -0.972723 0.123583 0.442293 0.133619 0.000000 0.000000 0.000000 2.327158 -3.270203 -0.268825 12.363815 11.139191 3.336101 -23.476376 28.922767 6.664381 0.000000 0.000000 0.000000 4.584465 -4.816012 -1.244366 8.592881 -2.972713 4.850531 2.203984 -8.779255 2.260639 -48.341316 0.151007 4.728910 -172.261086 -82.535651 178.884949 0.000000 0.000000 0.000000 5.479357 -3.754226 -0.159772 -7.283786 -1.008087 -11.606994 10.864693 7.313125 6.920650 -53.470614 -3.614936 22.789582 -100.848208 73.328556 107.960900 0.000000 0.000000 0.000000 
